<svg id="SvgjsSvg1006" width="2396.700164794922" height="987" xmlns="http://www.w3.org/2000/svg" version="1.1" xmlns:xlink="http://www.w3.org/1999/xlink" xmlns:svgjs="http://svgjs.com/svgjs"><defs id="SvgjsDefs1007"><marker id="SvgjsMarker1368" markerWidth="14" markerHeight="12" refX="16" refY="6" viewBox="0 0 14 12" orient="auto" markerUnits="userSpaceOnUse" stroke-dasharray="0,0"><path id="SvgjsPath1369" d="M1,1 L14,6 L1,11L1,1" fill="#ffffff" stroke="#323232" stroke-width="2"></path></marker></defs><g id="SvgjsG1008" transform="translate(410.33331298828125,25.008315563201904)"><path id="SvgjsPath1009" d="M 0 4Q 0 0 4 0L 1762.3689999999997 0Q 1766.3689999999997 0 1766.3689999999997 4L 1766.3689999999997 933.4999999999997Q 1766.3689999999997 937.4999999999997 1762.3689999999997 937.4999999999997L 4 937.4999999999997Q 0 937.4999999999997 0 933.4999999999997Z" stroke-dasharray="10,6" stroke="rgba(50,50,50,1)" stroke-width="2" fill-opacity="1" fill="#ffffff"></path><g id="SvgjsG1010"><text id="SvgjsText1011" font-family="微软雅黑" text-anchor="middle" font-size="13px" width="1747px" fill="#323232" font-weight="400" align="middle" anchor="middle" family="微软雅黑" size="13px" weight="400" font-style="" opacity="1" y="458.79999999999984" transform="rotate(0)"></text></g></g><g id="SvgjsG1012" transform="translate(952.1666336059566,312.5083155632018)"><path id="SvgjsPath1013" d="M 0 4Q 0 0 4 0L 1220.5356793823244 0Q 1224.5356793823244 0 1224.5356793823244 4L 1224.5356793823244 643.4999999999998Q 1224.5356793823244 647.4999999999998 1220.5356793823244 647.4999999999998L 4 647.4999999999998Q 0 647.4999999999998 0 643.4999999999998Z" stroke-dasharray="10,6" stroke="rgba(50,50,50,1)" stroke-width="2" fill-opacity="1" fill="#ffffff"></path><g id="SvgjsG1014"><text id="SvgjsText1015" font-family="微软雅黑" text-anchor="middle" font-size="13px" width="1205px" fill="#323232" font-weight="400" align="middle" anchor="middle" family="微软雅黑" size="13px" weight="400" font-style="" opacity="1" y="313.7999999999999" transform="rotate(0)"></text></g></g><g id="SvgjsG1016" transform="translate(1149.5,355.8418917655945)"><path id="SvgjsPath1017" d="M 0 4Q 0 0 4 0L 174 0Q 178 0 178 4L 178 68Q 178 72 174 72L 4 72Q 0 72 0 68Z" stroke="rgba(50,50,50,1)" stroke-width="2" fill-opacity="1" fill="#ccff99"></path><g id="SvgjsG1018"><text id="SvgjsText1019" font-family="&quot;Times New Roman&quot;" text-anchor="middle" font-size="29px" width="158px" fill="#323232" font-weight="700" align="middle" anchor="middle" family="&quot;Times New Roman&quot;" size="29px" weight="700" font-style="" opacity="1" y="-5.85" transform="rotate(0)"><tspan id="SvgjsTspan1020" dy="36" x="89"><tspan id="SvgjsTspan1021" style="text-decoration:;">ALBERT-</tspan></tspan><tspan id="SvgjsTspan1022" dy="36" x="89"><tspan id="SvgjsTspan1023" style="text-decoration:;">xxlarge</tspan></tspan></text></g></g><g id="SvgjsG1024" transform="translate(1143.5,515.8418917655945)"><path id="SvgjsPath1025" d="M 0 4Q 0 0 4 0L 174 0Q 178 0 178 4L 178 68Q 178 72 174 72L 4 72Q 0 72 0 68Z" stroke="rgba(50,50,50,1)" stroke-width="2" fill-opacity="1" fill="#99ffcc"></path><g id="SvgjsG1026"><text id="SvgjsText1027" font-family="&quot;Times New Roman&quot;" text-anchor="middle" font-size="29px" width="158px" fill="#323232" font-weight="700" align="middle" anchor="middle" family="&quot;Times New Roman&quot;" size="29px" weight="700" font-style="" opacity="1" y="-5.85" transform="rotate(0)"><tspan id="SvgjsTspan1028" dy="36" x="89"><tspan id="SvgjsTspan1029" style="text-decoration:;">RoBertA-</tspan></tspan><tspan id="SvgjsTspan1030" dy="36" x="89"><tspan id="SvgjsTspan1031" style="text-decoration:;">large</tspan></tspan></text></g></g><g id="SvgjsG1032" transform="translate(1149.5,675.8418917655945)"><path id="SvgjsPath1033" d="M 0 4Q 0 0 4 0L 174 0Q 178 0 178 4L 178 68Q 178 72 174 72L 4 72Q 0 72 0 68Z" stroke="rgba(50,50,50,1)" stroke-width="2" fill-opacity="1" fill="#99ccff"></path><g id="SvgjsG1034"><text id="SvgjsText1035" font-family="&quot;Times New Roman&quot;" text-anchor="middle" font-size="29px" width="158px" fill="#323232" font-weight="700" align="middle" anchor="middle" family="&quot;Times New Roman&quot;" size="29px" weight="700" font-style="" opacity="1" y="-5.85" transform="rotate(0)"><tspan id="SvgjsTspan1036" dy="36" x="89"><tspan id="SvgjsTspan1037" style="text-decoration:;">DeBERTA-</tspan></tspan><tspan id="SvgjsTspan1038" dy="36" x="89"><tspan id="SvgjsTspan1039" style="text-decoration:;">large</tspan></tspan></text></g></g><g id="SvgjsG1040" transform="translate(1143.5,837.3418917655945)"><path id="SvgjsPath1041" d="M 0 4Q 0 0 4 0L 174 0Q 178 0 178 4L 178 68Q 178 72 174 72L 4 72Q 0 72 0 68Z" stroke="rgba(50,50,50,1)" stroke-width="2" fill-opacity="1" fill="#ffffcc"></path><g id="SvgjsG1042"><text id="SvgjsText1043" font-family="&quot;Times New Roman&quot;" text-anchor="middle" font-size="29px" width="158px" fill="#323232" font-weight="700" align="middle" anchor="middle" family="&quot;Times New Roman&quot;" size="29px" weight="700" font-style="" opacity="1" y="11.65" transform="rotate(0)"><tspan id="SvgjsTspan1044" dy="36" x="89"><tspan id="SvgjsTspan1045" style="text-decoration:;">T5-</tspan><tspan id="SvgjsTspan1046" style="text-decoration:;font-size: inherit;">3b</tspan></tspan></text></g></g><g id="SvgjsG1047" transform="translate(1725,438.84166288375854)"><path id="SvgjsPath1048" d="M 0 4Q 0 0 4 0L 228 0Q 232 0 232 4L 232 94Q 232 98 228 98L 4 98Q 0 98 0 94Z" stroke="rgba(50,50,50,1)" stroke-width="2" fill-opacity="1" fill="#ffff00"></path><g id="SvgjsG1049"><text id="SvgjsText1050" font-family="&quot;Times New Roman&quot;" text-anchor="middle" font-size="33px" width="212px" fill="#323232" font-weight="700" align="middle" anchor="middle" family="&quot;Times New Roman&quot;" size="33px" weight="700" font-style="" opacity="1" y="21.55" transform="rotate(0)"><tspan id="SvgjsTspan1051" dy="41" x="116"><tspan id="SvgjsTspan1052" style="text-decoration:;">ensemble NN</tspan></tspan></text></g></g><g id="SvgjsG1053" transform="translate(25,638.8416628837585)"><path id="SvgjsPath1054" d="M 20 12.25C 20 -4.083333333333333 40 -4.083333333333333 40 12.25C 40 28.583333333333332 20 28.583333333333332 20 12.25M 30 24.5L 30 73.5M 30 73.5L 5 98M 30 73.5L 55 98M 0 49L 60 49" stroke="rgba(50,50,50,1)" stroke-width="2" fill-opacity="1" fill="#ffffff"></path><path id="SvgjsPath1055" d="M 0 0L 60 0L 60 98L 0 98Z" stroke="none" fill="none"></path><g id="SvgjsG1056"><text id="SvgjsText1057" font-family="微软雅黑" text-anchor="middle" font-size="13px" width="100px" fill="#323232" font-weight="400" align="middle" anchor="middle" family="微软雅黑" size="13px" weight="400" font-style="" opacity="1" y="103.05" transform="rotate(0)"></text></g></g><g id="SvgjsG1058" transform="translate(1172.5,318.3418917655945)"><path id="SvgjsPath1059" d="M 0 0L 120 0L 120 40L 0 40Z" stroke="none" fill="none"></path><g id="SvgjsG1060"><text id="SvgjsText1061" font-family="&quot;Times New Roman&quot;" text-anchor="middle" font-size="22px" width="120px" fill="#323232" font-weight="700" align="middle" anchor="middle" family="&quot;Times New Roman&quot;" size="22px" weight="700" font-style="" opacity="1" y="0.7000000000000002" transform="rotate(0)"><tspan id="SvgjsTspan1062" dy="27" x="60"><tspan id="SvgjsTspan1063" style="text-decoration:;">CV: 0.875</tspan></tspan></text></g></g><g id="SvgjsG1064" transform="translate(1172.5,480.3418917655945)"><path id="SvgjsPath1065" d="M 0 0L 120 0L 120 40L 0 40Z" stroke="none" fill="none"></path><g id="SvgjsG1066"><text id="SvgjsText1067" font-family="&quot;Times New Roman&quot;" text-anchor="middle" font-size="22px" width="120px" fill="#323232" font-weight="700" align="middle" anchor="middle" family="&quot;Times New Roman&quot;" size="22px" weight="700" font-style="" opacity="1" y="0.7000000000000002" transform="rotate(0)"><tspan id="SvgjsTspan1068" dy="27" x="60"><tspan id="SvgjsTspan1069" style="text-decoration:;">CV: 0.865</tspan></tspan></text></g></g><g id="SvgjsG1070" transform="translate(1172.5,640.3418917655945)"><path id="SvgjsPath1071" d="M 0 0L 120 0L 120 40L 0 40Z" stroke="none" fill="none"></path><g id="SvgjsG1072"><text id="SvgjsText1073" font-family="&quot;Times New Roman&quot;" text-anchor="middle" font-size="22px" width="120px" fill="#323232" font-weight="700" align="middle" anchor="middle" family="&quot;Times New Roman&quot;" size="22px" weight="700" font-style="" opacity="1" y="0.7000000000000002" transform="rotate(0)"><tspan id="SvgjsTspan1074" dy="27" x="60"><tspan id="SvgjsTspan1075" style="text-decoration:;">CV: 0.872</tspan></tspan></text></g></g><g id="SvgjsG1076" transform="translate(1172.5,802.3418917655945)"><path id="SvgjsPath1077" d="M 0 0L 120 0L 120 40L 0 40Z" stroke="none" fill="none"></path><g id="SvgjsG1078"><text id="SvgjsText1079" font-family="&quot;Times New Roman&quot;" text-anchor="middle" font-size="22px" width="120px" fill="#323232" font-weight="700" align="middle" anchor="middle" family="&quot;Times New Roman&quot;" size="22px" weight="700" font-style="" opacity="1" y="0.7000000000000002" transform="rotate(0)"><tspan id="SvgjsTspan1080" dy="27" x="60"><tspan id="SvgjsTspan1081" style="text-decoration:;">CV: 0.847</tspan></tspan></text></g></g><g id="SvgjsG1082" transform="translate(1781,401.5083804130554)"><path id="SvgjsPath1083" d="M 0 0L 120 0L 120 40L 0 40Z" stroke="none" fill="none"></path><g id="SvgjsG1084"><text id="SvgjsText1085" font-family="&quot;Times New Roman&quot;" text-anchor="middle" font-size="22px" width="120px" fill="#323232" font-weight="700" align="middle" anchor="middle" family="&quot;Times New Roman&quot;" size="22px" weight="700" font-style="" opacity="1" y="0.7000000000000002" transform="rotate(0)"><tspan id="SvgjsTspan1086" dy="27" x="60"><tspan id="SvgjsTspan1087" style="text-decoration:;">CV: 0.890</tspan></tspan></text></g></g><g id="SvgjsG1088" transform="translate(73.33331298828125,472.84166288375854)"><path id="SvgjsPath1089" d="M 0 89.33332824707031C 0 -29.77777608235677 283 -29.77777608235677 283 89.33332824707031Q 277.34 175.0933233642578 141.5 178.66665649414062Q 94.33333333333333 178.66665649414062 47.166666666666664 160.79999084472658L 0 178.66665649414062L 33.111000000000004 153.1173246154785Q 0 125.06665954589843 0 89.33332824707031" stroke="rgba(50,50,50,1)" stroke-width="2" fill-opacity="1" fill="#ffffff"></path><g id="SvgjsG1090"><text id="SvgjsText1091" font-family="&quot;Times New Roman&quot;" text-anchor="middle" font-size="25px" width="263px" fill="#323232" font-weight="700" align="middle" anchor="middle" family="&quot;Times New Roman&quot;" size="25px" weight="700" font-style="" opacity="1" y="37.08332824707031" transform="rotate(0)"><tspan id="SvgjsTspan1092" dy="31" x="141.5"><tspan id="SvgjsTspan1093" style="text-decoration:;">Comcast and Time </tspan></tspan><tspan id="SvgjsTspan1094" dy="31" x="141.5"><tspan id="SvgjsTspan1095" style="text-decoration:;">Warner are the same </tspan></tspan><tspan id="SvgjsTspan1096" dy="31" x="141.5"><tspan id="SvgjsTspan1097" style="text-decoration:;">company?</tspan></tspan></text></g></g><g id="SvgjsG1098" transform="translate(25,96.84154081344604)"><path id="SvgjsPath1099" d="M 0 0L 311.33331298828125 0L 327.33331298828125 16L 327.33331298828125 334.333251953125L 0 334.333251953125L 0 0Z" stroke="none" fill-opacity="1" fill="#ffffaa"></path><path id="SvgjsPath1100" d="M 311.33331298828125 0L 311.33331298828125 16L 327.33331298828125 16Z" stroke="none" fill-opacity="1" fill="#cdcdcd"></path><path id="SvgjsPath1101" d="M 0 0L 311.33331298828125 0L 327.33331298828125 16L 327.33331298828125 334.333251953125L 0 334.333251953125L 0 0Z" stroke="none" fill="none"></path><g id="SvgjsG1102"><text id="SvgjsText1103" font-family="微软雅黑" text-anchor="middle" font-size="15px" width="308px" fill="#323232" font-weight="400" align="middle" anchor="middle" family="微软雅黑" size="15px" weight="400" font-style="" opacity="1" y="34.4166259765625" transform="rotate(0)"><tspan id="SvgjsTspan1104" dy="18" x="164"><tspan id="SvgjsTspan1105" style="text-decoration:;font-weight: bold;">Time Warner Cable attempted by </tspan></tspan><tspan id="SvgjsTspan1106" dy="18" x="164"><tspan id="SvgjsTspan1107" style="text-decoration:;font-weight: bold;">Comcast to purchase</tspan></tspan><tspan id="SvgjsTspan1108" dy="18" x="164"><tspan id="SvgjsTspan1109" style="text-decoration:;"> </tspan></tspan><tspan id="SvgjsTspan1110" dy="18" x="164"><tspan id="SvgjsTspan1111" style="text-decoration:;"> </tspan></tspan><tspan id="SvgjsTspan1112" dy="18" x="164"><tspan id="SvgjsTspan1113" style="text-decoration:;">The Justice Department led the merger as </tspan></tspan><tspan id="SvgjsTspan1114" dy="18" x="164"><tspan id="SvgjsTspan1115" style="text-decoration:;">a result of reduced competition in the </tspan></tspan><tspan id="SvgjsTspan1116" dy="18" x="164"><tspan id="SvgjsTspan1117" style="text-decoration:;">broadband and cable industries and plans </tspan></tspan><tspan id="SvgjsTspan1118" dy="18" x="164"><tspan id="SvgjsTspan1119" style="text-decoration:;">to file antitrust lawsuits against Comcast </tspan></tspan><tspan id="SvgjsTspan1120" dy="18" x="164"><tspan id="SvgjsTspan1121" style="text-decoration:;">and Time Warner Cable to halt that </tspan></tspan><tspan id="SvgjsTspan1122" dy="18" x="164"><tspan id="SvgjsTspan1123" style="text-decoration:;">competition. On April 24, 2015, Comcast </tspan></tspan><tspan id="SvgjsTspan1124" dy="18" x="164"><tspan id="SvgjsTspan1125" style="text-decoration:;">announced that it would withdraw its </tspan></tspan><tspan id="SvgjsTspan1126" dy="18" x="164"><tspan id="SvgjsTspan1127" style="text-decoration:;">proposal to acquire TWC. Thereafter, TWC </tspan></tspan><tspan id="SvgjsTspan1128" dy="18" x="164"><tspan id="SvgjsTspan1129" style="text-decoration:;">will sign an agreement to be acquired by </tspan></tspan><tspan id="SvgjsTspan1130" dy="18" x="164"><tspan id="SvgjsTspan1131" style="text-decoration:;">Charter Communications. </tspan></tspan></text></g></g><g id="SvgjsG1132" transform="translate(410.33331298828125,432.4445586204529)"><path id="SvgjsPath1133" d="M 0 0L 490 0L 490 72L 0 72Z" stroke="rgba(50,50,50,1)" stroke-width="2" fill-opacity="1" fill="#ffe6cc"></path><g id="SvgjsG1134"><text id="SvgjsText1135" font-family="&quot;Times New Roman&quot;" text-anchor="middle" font-size="25px" width="470px" fill="#323232" font-weight="700" align="middle" anchor="middle" family="&quot;Times New Roman&quot;" size="25px" weight="700" font-style="" opacity="1" y="14.75" transform="rotate(0)"><tspan id="SvgjsTspan1136" dy="31" x="245"><tspan id="SvgjsTspan1137" style="text-decoration:;">&lt;sos&gt; Question &lt;sep&gt; (Title) Passage &lt;sep&gt;</tspan></tspan></text></g></g><g id="SvgjsG1138"><path id="SvgjsPath1139" d="M1149.5 391.8418917655945C 1045.2295773591209 391.8418917655945 1004.6037356291604 468.4445586204529 900.3333129882812 468.4445586204529" stroke="#323232" stroke-width="2" fill="none"></path></g><g id="SvgjsG1140"><path id="SvgjsPath1141" d="M1143.5 551.8418917655945C 1040.6718693368575 551.8418917655945 1003.1614436514237 468.4445586204529 900.3333129882812 468.4445586204529" stroke="#323232" stroke-width="2" fill="none"></path></g><g id="SvgjsG1142"><path id="SvgjsPath1143" d="M1149.5 711.8418917655945C 1010.172300127469 711.8418917655945 1039.6610128608122 468.4445586204529 900.3333129882812 468.4445586204529" stroke="#323232" stroke-width="2" fill="none"></path></g><g id="SvgjsG1144"><path id="SvgjsPath1145" d="M1143.5 873.3418917655945C 954.578052916956 873.3418917655945 1089.2552600713252 468.4445586204529 900.3333129882812 468.4445586204529" stroke="#323232" stroke-width="2" fill="none"></path></g><g id="SvgjsG1146" transform="translate(1328.5,374.3420443534851)"><path id="SvgjsPath1147" d="M 0 13.200000000000001L 80 13.200000000000001L 80 0L 100 20L 80 40L 80 26.8L 0 26.8L 0 13.200000000000001Z" stroke="rgba(50,50,50,1)" stroke-width="2" fill-opacity="1" fill="#ffffff"></path><g id="SvgjsG1148"><text id="SvgjsText1149" font-family="微软雅黑" text-anchor="middle" font-size="13px" width="100px" fill="#323232" font-weight="400" align="middle" anchor="middle" family="微软雅黑" size="13px" weight="400" font-style="" opacity="1" y="10.050000000000002" transform="rotate(0)"></text></g></g><g id="SvgjsG1150" transform="translate(1321.5,528.6753649711609)"><path id="SvgjsPath1151" d="M 0 13.832504196166992L 84.37494277954102 13.832504196166992L 84.37494277954102 0L 105.33328247070312 20.95833969116211L 84.37494277954102 41.91667938232422L 84.37494277954102 28.08417518615723L 0 28.08417518615723L 0 13.832504196166992Z" stroke="rgba(50,50,50,1)" stroke-width="2" fill-opacity="1" fill="#ffffff"></path><g id="SvgjsG1152"><text id="SvgjsText1153" font-family="微软雅黑" text-anchor="middle" font-size="13px" width="106px" fill="#323232" font-weight="400" align="middle" anchor="middle" family="微软雅黑" size="13px" weight="400" font-style="" opacity="1" y="11.00833969116211" transform="rotate(0)"></text></g></g><g id="SvgjsG1154" transform="translate(1328.5,692.5921206474304)"><path id="SvgjsPath1155" d="M 0 13.200000000000001L 80 13.200000000000001L 80 0L 100 20L 80 40L 80 26.8L 0 26.8L 0 13.200000000000001Z" stroke="rgba(50,50,50,1)" stroke-width="2" fill-opacity="1" fill="#ffffff"></path><g id="SvgjsG1156"><text id="SvgjsText1157" font-family="微软雅黑" text-anchor="middle" font-size="13px" width="100px" fill="#323232" font-weight="400" align="middle" anchor="middle" family="微软雅黑" size="13px" weight="400" font-style="" opacity="1" y="10.050000000000002" transform="rotate(0)"></text></g></g><g id="SvgjsG1158" transform="translate(1325.7499694824219,858.6753649711609)"><path id="SvgjsPath1159" d="M 0 11.549896774291993L 87.16678237915039 11.549896774291993L 87.16678237915039 0L 104.6666259765625 17.49984359741211L 87.16678237915039 34.99968719482422L 87.16678237915039 23.449790420532228L 0 23.449790420532228L 0 11.549896774291993Z" stroke="rgba(50,50,50,1)" stroke-width="2" fill-opacity="1" fill="#ffffff"></path><g id="SvgjsG1160"><text id="SvgjsText1161" font-family="微软雅黑" text-anchor="middle" font-size="13px" width="105px" fill="#323232" font-weight="400" align="middle" anchor="middle" family="微软雅黑" size="13px" weight="400" font-style="" opacity="1" y="7.549843597412109" transform="rotate(0)"></text></g></g><g id="SvgjsG1162" transform="translate(1427.8333129882812,324.8418917655945)"><path id="SvgjsPath1163" d="M 18 0Q 9 0 9 9L 9 61Q 9 70 0 70Q 9 70 9 79L 9 131Q 9 140 18 140" stroke="rgba(50,50,50,1)" stroke-width="2" fill="none"></path><path id="SvgjsPath1164" d="M 98 140Q 107 140 107 131L 107 79Q 107 70 116 70Q 107 70 107 61L 107 9Q 107 0 98 0" stroke="rgba(50,50,50,1)" stroke-width="2" fill="none"></path><path id="SvgjsPath1165" d="M 0 0L 116 0L 116 140L 0 140Z" stroke="none" fill="none"></path><g id="SvgjsG1166"><text id="SvgjsText1167" font-family="微软雅黑" text-anchor="middle" font-size="13px" width="96px" fill="#323232" font-weight="400" align="middle" anchor="middle" family="微软雅黑" size="13px" weight="400" font-style="" opacity="1" y="60.05" transform="rotate(0)"></text></g></g><g id="SvgjsG1168" transform="translate(1458.4165954589844,324.8418917655945)"><path id="SvgjsPath1169" d="M 0 29.5C 0 -9.833333333333334 60 -9.833333333333334 60 29.5C 60 68.83333333333333 0 68.83333333333333 0 29.5Z" stroke="rgba(50,50,50,1)" stroke-width="2" fill-opacity="1" fill="#99ff99"></path><g id="SvgjsG1170"><text id="SvgjsText1171" font-family="微软雅黑" text-anchor="middle" font-size="13px" width="40px" fill="#323232" font-weight="400" align="middle" anchor="middle" family="微软雅黑" size="13px" weight="400" font-style="" opacity="1" y="11.55" transform="rotate(0)"><tspan id="SvgjsTspan1172" dy="16" x="30"><tspan id="SvgjsTspan1173" style="text-decoration:;">YES</tspan></tspan><tspan id="SvgjsTspan1174" dy="16" x="30"><tspan id="SvgjsTspan1175" style="text-decoration:;">Proba</tspan></tspan></text></g></g><g id="SvgjsG1176" transform="translate(1458.4165954589844,405.8418917655945)"><path id="SvgjsPath1177" d="M 0 29.5C 0 -9.833333333333334 60 -9.833333333333334 60 29.5C 60 68.83333333333333 0 68.83333333333333 0 29.5Z" stroke="rgba(50,50,50,1)" stroke-width="2" fill-opacity="1" fill="#ff9999"></path><g id="SvgjsG1178"><text id="SvgjsText1179" font-family="微软雅黑" text-anchor="middle" font-size="13px" width="40px" fill="#323232" font-weight="400" align="middle" anchor="middle" family="微软雅黑" size="13px" weight="400" font-style="" opacity="1" y="11.55" transform="rotate(0)"><tspan id="SvgjsTspan1180" dy="16" x="30"><tspan id="SvgjsTspan1181" style="text-decoration:;">No</tspan></tspan><tspan id="SvgjsTspan1182" dy="16" x="30"><tspan id="SvgjsTspan1183" style="text-decoration:;">Proba</tspan></tspan></text></g></g><g id="SvgjsG1184"><path id="SvgjsPath1185" d="M1543.8333129882812 394.8418917655945C 1625.2903700535428 394.8418917655945 1643.5429429347384 487.84166288375854 1725 487.84166288375854" stroke="#323232" stroke-width="2" fill="none"></path></g><g id="SvgjsG1186" transform="translate(1427.8333129882812,479.633704662323)"><path id="SvgjsPath1187" d="M 18 0Q 9 0 9 9L 9 61Q 9 70 0 70Q 9 70 9 79L 9 131Q 9 140 18 140" stroke="rgba(50,50,50,1)" stroke-width="2" fill="none"></path><path id="SvgjsPath1188" d="M 98 140Q 107 140 107 131L 107 79Q 107 70 116 70Q 107 70 107 61L 107 9Q 107 0 98 0" stroke="rgba(50,50,50,1)" stroke-width="2" fill="none"></path><path id="SvgjsPath1189" d="M 0 0L 116 0L 116 140L 0 140Z" stroke="none" fill="none"></path><g id="SvgjsG1190"><text id="SvgjsText1191" font-family="微软雅黑" text-anchor="middle" font-size="13px" width="96px" fill="#323232" font-weight="400" align="middle" anchor="middle" family="微软雅黑" size="13px" weight="400" font-style="" opacity="1" y="60.05" transform="rotate(0)"></text></g></g><g id="SvgjsG1192" transform="translate(1458.4165954589844,479.633704662323)"><path id="SvgjsPath1193" d="M 0 29.5C 0 -9.833333333333334 60 -9.833333333333334 60 29.5C 60 68.83333333333333 0 68.83333333333333 0 29.5Z" stroke="rgba(50,50,50,1)" stroke-width="2" fill-opacity="1" fill="#99ff99"></path><g id="SvgjsG1194"><text id="SvgjsText1195" font-family="微软雅黑" text-anchor="middle" font-size="13px" width="40px" fill="#323232" font-weight="400" align="middle" anchor="middle" family="微软雅黑" size="13px" weight="400" font-style="" opacity="1" y="11.55" transform="rotate(0)"><tspan id="SvgjsTspan1196" dy="16" x="30"><tspan id="SvgjsTspan1197" style="text-decoration:;">YES</tspan></tspan><tspan id="SvgjsTspan1198" dy="16" x="30"><tspan id="SvgjsTspan1199" style="text-decoration:;">Proba</tspan></tspan></text></g></g><g id="SvgjsG1200" transform="translate(1458.4165954589844,556.3420443534851)"><path id="SvgjsPath1201" d="M 0 29.5C 0 -9.833333333333334 60 -9.833333333333334 60 29.5C 60 68.83333333333333 0 68.83333333333333 0 29.5Z" stroke="rgba(50,50,50,1)" stroke-width="2" fill-opacity="1" fill="#ff9999"></path><g id="SvgjsG1202"><text id="SvgjsText1203" font-family="微软雅黑" text-anchor="middle" font-size="13px" width="40px" fill="#323232" font-weight="400" align="middle" anchor="middle" family="微软雅黑" size="13px" weight="400" font-style="" opacity="1" y="11.55" transform="rotate(0)"><tspan id="SvgjsTspan1204" dy="16" x="30"><tspan id="SvgjsTspan1205" style="text-decoration:;">No</tspan></tspan><tspan id="SvgjsTspan1206" dy="16" x="30"><tspan id="SvgjsTspan1207" style="text-decoration:;">Proba</tspan></tspan></text></g></g><g id="SvgjsG1208" transform="translate(1430.4165954589844,642.5921206474304)"><path id="SvgjsPath1209" d="M 18 0Q 9 0 9 9L 9 61Q 9 70 0 70Q 9 70 9 79L 9 131Q 9 140 18 140" stroke="rgba(50,50,50,1)" stroke-width="2" fill="none"></path><path id="SvgjsPath1210" d="M 98 140Q 107 140 107 131L 107 79Q 107 70 116 70Q 107 70 107 61L 107 9Q 107 0 98 0" stroke="rgba(50,50,50,1)" stroke-width="2" fill="none"></path><path id="SvgjsPath1211" d="M 0 0L 116 0L 116 140L 0 140Z" stroke="none" fill="none"></path><g id="SvgjsG1212"><text id="SvgjsText1213" font-family="微软雅黑" text-anchor="middle" font-size="13px" width="96px" fill="#323232" font-weight="400" align="middle" anchor="middle" family="微软雅黑" size="13px" weight="400" font-style="" opacity="1" y="60.05" transform="rotate(0)"></text></g></g><g id="SvgjsG1214" transform="translate(1458.4165954589844,640.3418917655945)"><path id="SvgjsPath1215" d="M 0 29.5C 0 -9.833333333333334 60 -9.833333333333334 60 29.5C 60 68.83333333333333 0 68.83333333333333 0 29.5Z" stroke="rgba(50,50,50,1)" stroke-width="2" fill-opacity="1" fill="#99ff99"></path><g id="SvgjsG1216"><text id="SvgjsText1217" font-family="微软雅黑" text-anchor="middle" font-size="13px" width="40px" fill="#323232" font-weight="400" align="middle" anchor="middle" family="微软雅黑" size="13px" weight="400" font-style="" opacity="1" y="11.55" transform="rotate(0)"><tspan id="SvgjsTspan1218" dy="16" x="30"><tspan id="SvgjsTspan1219" style="text-decoration:;">YES</tspan></tspan><tspan id="SvgjsTspan1220" dy="16" x="30"><tspan id="SvgjsTspan1221" style="text-decoration:;">Proba</tspan></tspan></text></g></g><g id="SvgjsG1222" transform="translate(1458.4165954589844,727.3420443534851)"><path id="SvgjsPath1223" d="M 0 29.5C 0 -9.833333333333334 60 -9.833333333333334 60 29.5C 60 68.83333333333333 0 68.83333333333333 0 29.5Z" stroke="rgba(50,50,50,1)" stroke-width="2" fill-opacity="1" fill="#ff9999"></path><g id="SvgjsG1224"><text id="SvgjsText1225" font-family="微软雅黑" text-anchor="middle" font-size="13px" width="40px" fill="#323232" font-weight="400" align="middle" anchor="middle" family="微软雅黑" size="13px" weight="400" font-style="" opacity="1" y="11.55" transform="rotate(0)"><tspan id="SvgjsTspan1226" dy="16" x="30"><tspan id="SvgjsTspan1227" style="text-decoration:;">No</tspan></tspan><tspan id="SvgjsTspan1228" dy="16" x="30"><tspan id="SvgjsTspan1229" style="text-decoration:;">Proba</tspan></tspan></text></g></g><g id="SvgjsG1230" transform="translate(1430.4165954589844,806.1753268241882)"><path id="SvgjsPath1231" d="M 18 0Q 9 0 9 9L 9 61Q 9 70 0 70Q 9 70 9 79L 9 131Q 9 140 18 140" stroke="rgba(50,50,50,1)" stroke-width="2" fill="none"></path><path id="SvgjsPath1232" d="M 98 140Q 107 140 107 131L 107 79Q 107 70 116 70Q 107 70 107 61L 107 9Q 107 0 98 0" stroke="rgba(50,50,50,1)" stroke-width="2" fill="none"></path><path id="SvgjsPath1233" d="M 0 0L 116 0L 116 140L 0 140Z" stroke="none" fill="none"></path><g id="SvgjsG1234"><text id="SvgjsText1235" font-family="微软雅黑" text-anchor="middle" font-size="13px" width="96px" fill="#323232" font-weight="400" align="middle" anchor="middle" family="微软雅黑" size="13px" weight="400" font-style="" opacity="1" y="60.05" transform="rotate(0)"></text></g></g><g id="SvgjsG1236" transform="translate(1458.4165954589844,806.1753268241882)"><path id="SvgjsPath1237" d="M 0 29.5C 0 -9.833333333333334 60 -9.833333333333334 60 29.5C 60 68.83333333333333 0 68.83333333333333 0 29.5Z" stroke="rgba(50,50,50,1)" stroke-width="2" fill-opacity="1" fill="#99ff99"></path><g id="SvgjsG1238"><text id="SvgjsText1239" font-family="微软雅黑" text-anchor="middle" font-size="13px" width="40px" fill="#323232" font-weight="400" align="middle" anchor="middle" family="微软雅黑" size="13px" weight="400" font-style="" opacity="1" y="11.55" transform="rotate(0)"><tspan id="SvgjsTspan1240" dy="16" x="30"><tspan id="SvgjsTspan1241" style="text-decoration:;">YES</tspan></tspan><tspan id="SvgjsTspan1242" dy="16" x="30"><tspan id="SvgjsTspan1243" style="text-decoration:;">Proba</tspan></tspan></text></g></g><g id="SvgjsG1244" transform="translate(1458.4165954589844,887.1753268241882)"><path id="SvgjsPath1245" d="M 0 29.5C 0 -9.833333333333334 60 -9.833333333333334 60 29.5C 60 68.83333333333333 0 68.83333333333333 0 29.5Z" stroke="rgba(50,50,50,1)" stroke-width="2" fill-opacity="1" fill="#ff9999"></path><g id="SvgjsG1246"><text id="SvgjsText1247" font-family="微软雅黑" text-anchor="middle" font-size="13px" width="40px" fill="#323232" font-weight="400" align="middle" anchor="middle" family="微软雅黑" size="13px" weight="400" font-style="" opacity="1" y="11.55" transform="rotate(0)"><tspan id="SvgjsTspan1248" dy="16" x="30"><tspan id="SvgjsTspan1249" style="text-decoration:;">No</tspan></tspan><tspan id="SvgjsTspan1250" dy="16" x="30"><tspan id="SvgjsTspan1251" style="text-decoration:;">Proba</tspan></tspan></text></g></g><g id="SvgjsG1252"><path id="SvgjsPath1253" d="M1543.8333129882812 549.633704662323C 1620.3992322056101 549.633704662323 1648.4340807826711 487.84166288375854 1725 487.84166288375854" stroke="#323232" stroke-width="2" fill="none"></path></g><g id="SvgjsG1254"><path id="SvgjsPath1255" d="M1546.4165954589844 712.5921206474304C 1661.2415409316054 712.5921206474304 1610.175054527379 487.84166288375854 1725 487.84166288375854" stroke="#323232" stroke-width="2" fill="none"></path></g><g id="SvgjsG1256"><path id="SvgjsPath1257" d="M1546.4165954589844 876.1753268241882C 1717.3879694029795 876.1753268241882 1554.028626056005 487.84166288375854 1725 487.84166288375854" stroke="#323232" stroke-width="2" fill="none"></path></g><g id="SvgjsG1258" transform="translate(2060.702312988281,417.84166288375854)"><path id="SvgjsPath1259" d="M 18 0Q 9 0 9 9L 9 61Q 9 70 0 70Q 9 70 9 79L 9 131Q 9 140 18 140" stroke="rgba(50,50,50,1)" stroke-width="2" fill="none"></path><path id="SvgjsPath1260" d="M 98 140Q 107 140 107 131L 107 79Q 107 70 116 70Q 107 70 107 61L 107 9Q 107 0 98 0" stroke="rgba(50,50,50,1)" stroke-width="2" fill="none"></path><path id="SvgjsPath1261" d="M 0 0L 116 0L 116 140L 0 140Z" stroke="none" fill="none"></path><g id="SvgjsG1262"><text id="SvgjsText1263" font-family="微软雅黑" text-anchor="middle" font-size="13px" width="96px" fill="#323232" font-weight="400" align="middle" anchor="middle" family="微软雅黑" size="13px" weight="400" font-style="" opacity="1" y="60.05" transform="rotate(0)"></text></g></g><g id="SvgjsG1264" transform="translate(2092.702312988281,414.2167658805847)"><path id="SvgjsPath1265" d="M 0 29.5C 0 -9.833333333333334 59 -9.833333333333334 59 29.5C 59 68.83333333333333 0 68.83333333333333 0 29.5Z" stroke="rgba(50,50,50,1)" stroke-width="2" fill-opacity="1" fill="#99ff99"></path><g id="SvgjsG1266"><text id="SvgjsText1267" font-family="微软雅黑" text-anchor="middle" font-size="13px" width="39px" fill="#323232" font-weight="400" align="middle" anchor="middle" family="微软雅黑" size="13px" weight="400" font-style="" opacity="1" y="11.55" transform="rotate(0)"><tspan id="SvgjsTspan1268" dy="16" x="29.5"><tspan id="SvgjsTspan1269" style="text-decoration:;">YES</tspan></tspan><tspan id="SvgjsTspan1270" dy="16" x="29.5"><tspan id="SvgjsTspan1271" style="text-decoration:;">Proba</tspan></tspan></text></g></g><g id="SvgjsG1272" transform="translate(2092.702312988281,498.84166288375854)"><path id="SvgjsPath1273" d="M 0 29.5C 0 -9.833333333333334 59 -9.833333333333334 59 29.5C 59 68.83333333333333 0 68.83333333333333 0 29.5Z" stroke="rgba(50,50,50,1)" stroke-width="2" fill-opacity="1" fill="#ff9999"></path><g id="SvgjsG1274"><text id="SvgjsText1275" font-family="微软雅黑" text-anchor="middle" font-size="13px" width="39px" fill="#323232" font-weight="400" align="middle" anchor="middle" family="微软雅黑" size="13px" weight="400" font-style="" opacity="1" y="11.55" transform="rotate(0)"><tspan id="SvgjsTspan1276" dy="16" x="29.5"><tspan id="SvgjsTspan1277" style="text-decoration:;">No</tspan></tspan><tspan id="SvgjsTspan1278" dy="16" x="29.5"><tspan id="SvgjsTspan1279" style="text-decoration:;">Proba</tspan></tspan></text></g></g><g id="SvgjsG1280" transform="translate(1958.3333129882812,467.84166288375854)"><path id="SvgjsPath1281" d="M 0 13.200000000000001L 80 13.200000000000001L 80 0L 100 20L 80 40L 80 26.8L 0 26.8L 0 13.200000000000001Z" stroke="rgba(50,50,50,1)" stroke-width="2" fill-opacity="1" fill="#ffffff"></path><g id="SvgjsG1282"><text id="SvgjsText1283" font-family="微软雅黑" text-anchor="middle" font-size="13px" width="100px" fill="#323232" font-weight="400" align="middle" anchor="middle" family="微软雅黑" size="13px" weight="400" font-style="" opacity="1" y="10.050000000000002" transform="rotate(0)"></text></g></g><g id="SvgjsG1284" transform="translate(2176.702312988281,372.8415102958679)"><path id="SvgjsPath1285" d="M 0 56.81252479553223C 0 -18.93750826517741 195.6310190734862 -18.93750826517741 195.6310190734862 56.81252479553223Q 191.71839869201645 111.35254859924316 97.8155095367431 113.62504959106445Q 65.21033969116206 113.62504959106445 32.60516984558103 102.26254463195801L 0 113.62504959106445L 22.888829231597885 97.37666749954224Q 0 79.53753471374512 0 56.81252479553223" stroke="rgba(50,50,50,1)" stroke-width="2" fill-opacity="1" fill="#cce5ff"></path><g id="SvgjsG1286"><text id="SvgjsText1287" font-family="&quot;Times New Roman&quot;" text-anchor="middle" font-size="49px" width="176px" fill="#323232" font-weight="400" align="middle" anchor="middle" family="&quot;Times New Roman&quot;" size="49px" weight="400" font-style="" opacity="1" y="16.962524795532225" transform="rotate(0)"><tspan id="SvgjsTspan1288" dy="61" x="98"><tspan id="SvgjsTspan1289" style="text-decoration:;">No!</tspan></tspan></text></g></g><g id="SvgjsG1290"><path id="SvgjsPath1291" d="M352.33331298828125 264.00816679000854C 437.0786775001197 264.00816679000854 325.5879484764428 467.77790212631226 410.33331298828125 468.4445586204529" stroke="#323232" stroke-width="2" fill="none"></path></g><g id="SvgjsG1292"><path id="SvgjsPath1293" d="M356.33331298828125 562.1749911308289C 397.4752135780265 564.4304100637155 368.5567322658961 467.77790212631226 410.33331298828125 468.4445586204529" stroke="#323232" stroke-width="2" fill="none"></path></g><g id="SvgjsG1294" transform="translate(586.8666534423828,342.4445586204529)"><path id="SvgjsPath1295" d="M 19.8 0L 40.2 0L 40.2 60L 60 60L 30 90L 0 60L 19.8 60L 19.8 0Z" stroke="rgba(50,50,50,1)" stroke-width="2" fill-opacity="1" fill="#ffffff"></path><g id="SvgjsG1296"><text id="SvgjsText1297" font-family="微软雅黑" text-anchor="middle" font-size="13px" width="84px" fill="#323232" font-weight="400" align="middle" anchor="middle" family="微软雅黑" size="13px" weight="400" font-style="" opacity="1" y="30.55" transform="rotate(0)"></text></g></g><g id="SvgjsG1298" transform="translate(498.1166534423828,229.84166288375854)"><path id="SvgjsPath1299" d="M 28.5 75.74000053405761C -23.75 54.10000038146973 9.5 37.87000026702881 21.375 32.46000022888183C 16.625 5.410000038146973 76 0 99.75 10.820000076293946C 118.75 -5.410000038146973 178.125 0 178.125 16.230000114440916C 225.625 10.820000076293946 244.625 32.46000022888183 225.625 59.5100004196167C 242.25 81.15000057220459 225.625 108.20000076293945 171 97.38000068664552C 159.125 111.44600078582764 111.625 111.44600078582764 99.75 97.38000068664552C 76 108.20000076293945 28.5 102.79000072479248 28.5 75.74000053405761Z" stroke="rgba(50,50,50,1)" stroke-width="2" fill-opacity="1" fill="#ffffff"></path><g id="SvgjsG1300"><text id="SvgjsText1301" font-family="&quot;Times New Roman&quot;" text-anchor="middle" font-size="25px" width="218px" fill="#323232" font-weight="700" align="middle" anchor="middle" family="&quot;Times New Roman&quot;" size="25px" weight="700" font-style="" opacity="1" y="17.350000381469727" transform="rotate(0)"><tspan id="SvgjsTspan1302" dy="31" x="119"><tspan id="SvgjsTspan1303" style="text-decoration:;">Data</tspan></tspan><tspan id="SvgjsTspan1304" dy="31" x="119"><tspan id="SvgjsTspan1305" style="text-decoration:;">Augmentation</tspan></tspan></text></g></g><g id="SvgjsG1306" transform="translate(1747.1666336059563,717.0922560691837)"><path id="SvgjsPath1307" d="M 0 0L 364.9999999999998 0L 364.9999999999998 168.16701126098656L 0 168.16701126098656Z" stroke="none" fill="none"></path><g id="SvgjsG1308"><text id="SvgjsText1309" font-family="&quot;Times New Roman&quot;" text-anchor="middle" font-size="50px" width="365px" fill="#323232" font-weight="700" align="middle" anchor="middle" family="&quot;Times New Roman&quot;" size="50px" weight="700" font-style="" opacity="1" y="11.583505630493278" transform="rotate(0)"><tspan id="SvgjsTspan1310" dy="62" x="182.5"><tspan id="SvgjsTspan1311" style="text-decoration:;">Open </tspan></tspan><tspan id="SvgjsTspan1312" dy="62" x="182.5"><tspan id="SvgjsTspan1313" style="text-decoration:;">Assessment </tspan></tspan></text></g></g><g id="SvgjsG1314" transform="translate(1774.6666336059563,77.40353059768637)"><path id="SvgjsPath1315" d="M 0 0L 364.9999999999998 0L 364.9999999999998 168.16701126098656L 0 168.16701126098656Z" stroke="none" fill="none"></path><g id="SvgjsG1316"><text id="SvgjsText1317" font-family="&quot;Times New Roman&quot;" text-anchor="middle" font-size="50px" width="365px" fill="#323232" font-weight="700" align="middle" anchor="middle" family="&quot;Times New Roman&quot;" size="50px" weight="700" font-style="" opacity="1" y="11.583505630493278" transform="rotate(0)"><tspan id="SvgjsTspan1318" dy="62" x="182.5"><tspan id="SvgjsTspan1319" style="text-decoration:;">Closed </tspan></tspan><tspan id="SvgjsTspan1320" dy="62" x="182.5"><tspan id="SvgjsTspan1321" style="text-decoration:;">Assessment </tspan></tspan></text></g></g><g id="SvgjsG1322" transform="translate(1282.071428571428,154.8418917655946)"><path id="SvgjsPath1323" d="M 0 4Q 0 0 4 0L 174 0Q 178 0 178 4L 178 68Q 178 72 174 72L 4 72Q 0 72 0 68Z" stroke="rgba(50,50,50,1)" stroke-width="2" fill-opacity="1" fill="#ffffcc"></path><g id="SvgjsG1324"><text id="SvgjsText1325" font-family="&quot;Times New Roman&quot;" text-anchor="middle" font-size="29px" width="158px" fill="#323232" font-weight="700" align="middle" anchor="middle" family="&quot;Times New Roman&quot;" size="29px" weight="700" font-style="" opacity="1" y="11.65" transform="rotate(0)"><tspan id="SvgjsTspan1326" dy="36" x="89"><tspan id="SvgjsTspan1327" style="text-decoration:;">Attention</tspan></tspan></text></g></g><g id="SvgjsG1328" transform="translate(1311.071428571428,121.37250401049258)"><path id="SvgjsPath1329" d="M 0 0L 120 0L 120 40L 0 40Z" stroke="none" fill="none"></path><g id="SvgjsG1330"><text id="SvgjsText1331" font-family="&quot;Times New Roman&quot;" text-anchor="middle" font-size="22px" width="120px" fill="#323232" font-weight="700" align="middle" anchor="middle" family="&quot;Times New Roman&quot;" size="22px" weight="700" font-style="" opacity="1" y="0.7000000000000002" transform="rotate(0)"><tspan id="SvgjsTspan1332" dy="27" x="60"><tspan id="SvgjsTspan1333" style="text-decoration:;">CV: 0.670</tspan></tspan></text></g></g><g id="SvgjsG1334" transform="translate(1464.3213980538499,176.175364971161)"><path id="SvgjsPath1335" d="M 0 11.549896774291993L 87.16678237915039 11.549896774291993L 87.16678237915039 0L 104.6666259765625 17.49984359741211L 87.16678237915039 34.99968719482422L 87.16678237915039 23.449790420532228L 0 23.449790420532228L 0 11.549896774291993Z" stroke="rgba(50,50,50,1)" stroke-width="2" fill-opacity="1" fill="#ffffff"></path><g id="SvgjsG1336"><text id="SvgjsText1337" font-family="微软雅黑" text-anchor="middle" font-size="13px" width="105px" fill="#323232" font-weight="400" align="middle" anchor="middle" family="微软雅黑" size="13px" weight="400" font-style="" opacity="1" y="7.549843597412109" transform="rotate(0)"></text></g></g><g id="SvgjsG1338" transform="translate(1568.9880240304124,123.67532682418835)"><path id="SvgjsPath1339" d="M 18 0Q 9 0 9 9L 9 61Q 9 70 0 70Q 9 70 9 79L 9 131Q 9 140 18 140" stroke="rgba(50,50,50,1)" stroke-width="2" fill="none"></path><path id="SvgjsPath1340" d="M 98 140Q 107 140 107 131L 107 79Q 107 70 116 70Q 107 70 107 61L 107 9Q 107 0 98 0" stroke="rgba(50,50,50,1)" stroke-width="2" fill="none"></path><path id="SvgjsPath1341" d="M 0 0L 116 0L 116 140L 0 140Z" stroke="none" fill="none"></path><g id="SvgjsG1342"><text id="SvgjsText1343" font-family="微软雅黑" text-anchor="middle" font-size="13px" width="96px" fill="#323232" font-weight="400" align="middle" anchor="middle" family="微软雅黑" size="13px" weight="400" font-style="" opacity="1" y="60.05" transform="rotate(0)"></text></g></g><g id="SvgjsG1344" transform="translate(1596.9880240304124,123.67532682418835)"><path id="SvgjsPath1345" d="M 0 29.5C 0 -9.833333333333334 60 -9.833333333333334 60 29.5C 60 68.83333333333333 0 68.83333333333333 0 29.5Z" stroke="rgba(50,50,50,1)" stroke-width="2" fill-opacity="1" fill="#99ff99"></path><g id="SvgjsG1346"><text id="SvgjsText1347" font-family="微软雅黑" text-anchor="middle" font-size="13px" width="40px" fill="#323232" font-weight="400" align="middle" anchor="middle" family="微软雅黑" size="13px" weight="400" font-style="" opacity="1" y="11.55" transform="rotate(0)"><tspan id="SvgjsTspan1348" dy="16" x="30"><tspan id="SvgjsTspan1349" style="text-decoration:;">YES</tspan></tspan><tspan id="SvgjsTspan1350" dy="16" x="30"><tspan id="SvgjsTspan1351" style="text-decoration:;">Proba</tspan></tspan></text></g></g><g id="SvgjsG1352" transform="translate(1596.9880240304124,204.67532682418835)"><path id="SvgjsPath1353" d="M 0 29.5C 0 -9.833333333333334 60 -9.833333333333334 60 29.5C 60 68.83333333333333 0 68.83333333333333 0 29.5Z" stroke="rgba(50,50,50,1)" stroke-width="2" fill-opacity="1" fill="#ff9999"></path><g id="SvgjsG1354"><text id="SvgjsText1355" font-family="微软雅黑" text-anchor="middle" font-size="13px" width="40px" fill="#323232" font-weight="400" align="middle" anchor="middle" family="微软雅黑" size="13px" weight="400" font-style="" opacity="1" y="11.55" transform="rotate(0)"><tspan id="SvgjsTspan1356" dy="16" x="30"><tspan id="SvgjsTspan1357" style="text-decoration:;">No</tspan></tspan><tspan id="SvgjsTspan1358" dy="16" x="30"><tspan id="SvgjsTspan1359" style="text-decoration:;">Proba</tspan></tspan></text></g></g><g id="SvgjsG1360" transform="translate(1080.1666194370805,155.91332033702318)"><path id="SvgjsPath1361" d="M 0 4Q 0 0 4 0L 174 0Q 178 0 178 4L 178 68Q 178 72 174 72L 4 72Q 0 72 0 68Z" stroke="rgba(50,50,50,1)" stroke-width="2" fill-opacity="1" fill="#ffffcc"></path><g id="SvgjsG1362"><text id="SvgjsText1363" font-family="&quot;Times New Roman&quot;" text-anchor="middle" font-size="29px" width="158px" fill="#323232" font-weight="700" align="middle" anchor="middle" family="&quot;Times New Roman&quot;" size="29px" weight="700" font-style="" opacity="1" y="11.65" transform="rotate(0)"><tspan id="SvgjsTspan1364" dy="36" x="89"><tspan id="SvgjsTspan1365" style="text-decoration:;">BiLSTM</tspan></tspan></text></g></g><g id="SvgjsG1366"><path id="SvgjsPath1367" d="M1258.1666194370803 191.91332033702318L1270.1190240042542 191.91332033702318L1270.1190240042542 190.8418917655946L1282.071428571428 190.8418917655946" stroke="#323232" stroke-width="2" fill="none" marker-end="url(#SvgjsMarker1368)"></path></g><g id="SvgjsG1370"><path id="SvgjsPath1371" d="M1080.1666194370805 191.91332033702318C 948.2214527321953 191.91332033702318 1032.2784796931664 468.4445586204528 900.3333129882812 468.4445586204529" stroke="#323232" stroke-width="2" fill="none"></path></g></svg>