<svg id="SvgjsSvg1006" width="332" height="231" xmlns="http://www.w3.org/2000/svg" version="1.1" xmlns:xlink="http://www.w3.org/1999/xlink" xmlns:svgjs="http://svgjs.com/svgjs"><defs id="SvgjsDefs1007"></defs><g id="SvgjsG1008" transform="translate(24.999984741210938,24.999984741210938)"><path id="SvgjsPath1009" d="M 0 0L 282 0L 282 28L 0 28Z" stroke="rgba(50,50,50,1)" stroke-width="2" fill-opacity="1" fill="#ffcc99"></path><g id="SvgjsG1010"><text id="SvgjsText1011" font-family="&quot;Times New Roman&quot;" text-anchor="middle" font-size="15px" width="262px" fill="#323232" font-weight="400" align="middle" anchor="middle" family="&quot;Times New Roman&quot;" size="15px" weight="400" font-style="italic" opacity="1" y="2.25" transform="rotate(0)"><tspan id="SvgjsTspan1012" dy="18" x="141"><tspan id="SvgjsTspan1013" style="text-decoration:;">&lt;sos&gt;(Title) Passage&lt;sep&gt;Answer&lt;sep&gt;</tspan></tspan></text></g></g><g id="SvgjsG1014" transform="translate(154.49998474121094,52.99998474121094)"><path id="SvgjsPath1015" d="M 7.590000000000001 0L 15.41 0L 15.41 14.5L 23 14.5L 11.5 26L 0 14.5L 7.590000000000001 14.5L 7.590000000000001 0Z" stroke="rgba(50,50,50,1)" stroke-width="2" fill-opacity="1" fill="#ffffff"></path><g id="SvgjsG1016"><text id="SvgjsText1017" font-family="微软雅黑" text-anchor="middle" font-size="13px" width="33px" fill="#323232" font-weight="400" align="middle" anchor="middle" family="微软雅黑" size="13px" weight="400" font-style="" opacity="1" y="1.7500000000000002" transform="rotate(0)"></text></g></g><g id="SvgjsG1018" transform="translate(105.74998474121094,78.99998474121094)"><path id="SvgjsPath1019" d="M 0 4Q 0 0 4 0L 116.5 0Q 120.5 0 120.5 4L 120.5 43Q 120.5 47 116.5 47L 4 47Q 0 47 0 43Z" stroke="rgba(50,50,50,1)" stroke-width="2" fill-opacity="1" fill="#ffcccc"></path><g id="SvgjsG1020"><text id="SvgjsText1021" font-family="&quot;Times New Roman&quot;" text-anchor="middle" font-size="15px" width="101px" fill="#323232" font-weight="700" align="middle" anchor="middle" family="&quot;Times New Roman&quot;" size="15px" weight="700" font-style="" opacity="1" y="2.75" transform="rotate(0)"><tspan id="SvgjsTspan1022" dy="18" x="60.5"><tspan id="SvgjsTspan1023" style="text-decoration:;">T5</tspan></tspan><tspan id="SvgjsTspan1024" dy="18" x="60.5"><tspan id="SvgjsTspan1025" style="text-decoration:;">Transformer</tspan></tspan></text></g></g><g id="SvgjsG1026" transform="translate(154.49998474121094,125.99998474121094)"><path id="SvgjsPath1027" d="M 7.590000000000001 0L 15.41 0L 15.41 13.75L 23 13.75L 11.5 25L 0 13.75L 7.590000000000001 13.75L 7.590000000000001 0Z" stroke="rgba(50,50,50,1)" stroke-width="2" fill-opacity="1" fill="#ffffff"></path><g id="SvgjsG1028"><text id="SvgjsText1029" font-family="微软雅黑" text-anchor="middle" font-size="13px" width="33px" fill="#323232" font-weight="400" align="middle" anchor="middle" family="微软雅黑" size="13px" weight="400" font-style="" opacity="1" y="1.3" transform="rotate(0)"></text></g></g><g id="SvgjsG1030" transform="translate(26.249984741210938,150.99998474121094)"><path id="SvgjsPath1031" d="M 0 0L 279.5 0L 279.5 55L 0 55Z" stroke="rgba(50,50,50,1)" stroke-width="2" fill-opacity="1" fill="#ccff99"></path><g id="SvgjsG1032"><text id="SvgjsText1033" font-family="&quot;Times New Roman&quot;" text-anchor="middle" font-size="14px" width="260px" fill="#323232" font-weight="400" align="middle" anchor="middle" family="&quot;Times New Roman&quot;" size="14px" weight="400" font-style="italic" opacity="1" y="-1.1" transform="rotate(0)"><tspan id="SvgjsTspan1034" dy="17" x="140"><tspan id="SvgjsTspan1035" style="text-decoration:;">Question1, conf1</tspan></tspan><tspan id="SvgjsTspan1036" dy="17" x="140"><tspan id="SvgjsTspan1037" style="text-decoration:;">Question2, conf2</tspan></tspan><tspan id="SvgjsTspan1038" dy="17" x="140"><tspan id="SvgjsTspan1039" style="text-decoration:;">... </tspan></tspan></text></g></g></svg>