<svg id="SvgjsSvg1858" width="2396.6979370117188" height="831" xmlns="http://www.w3.org/2000/svg" version="1.1" xmlns:xlink="http://www.w3.org/1999/xlink" xmlns:svgjs="http://svgjs.com/svgjs"><defs id="SvgjsDefs1859"></defs><g id="SvgjsG1860" transform="translate(410.33331298828125,25.008174896240234)"><path id="SvgjsPath1861" d="M 0 4Q 0 0 4 0L 1762.3689999999997 0Q 1766.3689999999997 0 1766.3689999999997 4L 1766.3689999999997 776.7935981750488Q 1766.3689999999997 780.7935981750488 1762.3689999999997 780.7935981750488L 4 780.7935981750488Q 0 780.7935981750488 0 776.7935981750488Z" stroke-dasharray="10,6" stroke="rgba(50,50,50,1)" stroke-width="2" fill-opacity="1" fill="#ffffff"></path><g id="SvgjsG1862"><text id="SvgjsText1863" font-family="微软雅黑" text-anchor="middle" font-size="13px" width="1747px" fill="#323232" font-weight="400" align="middle" anchor="middle" family="微软雅黑" size="13px" weight="400" font-style="" opacity="1" y="380.4467990875244" transform="rotate(0)"></text></g></g><g id="SvgjsG1864" transform="translate(1142,155.3019256591797)"><path id="SvgjsPath1865" d="M 0 4Q 0 0 4 0L 174 0Q 178 0 178 4L 178 68Q 178 72 174 72L 4 72Q 0 72 0 68Z" stroke="rgba(50,50,50,1)" stroke-width="2" fill-opacity="1" fill="#ccff99"></path><g id="SvgjsG1866"><text id="SvgjsText1867" font-family="&quot;Times New Roman&quot;" text-anchor="middle" font-size="29px" width="158px" fill="#323232" font-weight="700" align="middle" anchor="middle" family="&quot;Times New Roman&quot;" size="29px" weight="700" font-style="" opacity="1" y="-6.35" transform="rotate(0)"><tspan id="SvgjsTspan1868" dy="36" x="89"><tspan id="SvgjsTspan1869" style="text-decoration:;">ALBERT-</tspan></tspan><tspan id="SvgjsTspan1870" dy="36" x="89"><tspan id="SvgjsTspan1871" style="text-decoration:;">xxlarge</tspan></tspan></text></g></g><g id="SvgjsG1872" transform="translate(1136,315.3019256591797)"><path id="SvgjsPath1873" d="M 0 4Q 0 0 4 0L 174 0Q 178 0 178 4L 178 68Q 178 72 174 72L 4 72Q 0 72 0 68Z" stroke="rgba(50,50,50,1)" stroke-width="2" fill-opacity="1" fill="#99ffcc"></path><g id="SvgjsG1874"><text id="SvgjsText1875" font-family="&quot;Times New Roman&quot;" text-anchor="middle" font-size="29px" width="158px" fill="#323232" font-weight="700" align="middle" anchor="middle" family="&quot;Times New Roman&quot;" size="29px" weight="700" font-style="" opacity="1" y="-6.35" transform="rotate(0)"><tspan id="SvgjsTspan1876" dy="36" x="89"><tspan id="SvgjsTspan1877" style="text-decoration:;">RoBertA-</tspan></tspan><tspan id="SvgjsTspan1878" dy="36" x="89"><tspan id="SvgjsTspan1879" style="text-decoration:;">large</tspan></tspan></text></g></g><g id="SvgjsG1880" transform="translate(1142,475.3019256591797)"><path id="SvgjsPath1881" d="M 0 4Q 0 0 4 0L 174 0Q 178 0 178 4L 178 68Q 178 72 174 72L 4 72Q 0 72 0 68Z" stroke="rgba(50,50,50,1)" stroke-width="2" fill-opacity="1" fill="#99ccff"></path><g id="SvgjsG1882"><text id="SvgjsText1883" font-family="&quot;Times New Roman&quot;" text-anchor="middle" font-size="29px" width="158px" fill="#323232" font-weight="700" align="middle" anchor="middle" family="&quot;Times New Roman&quot;" size="29px" weight="700" font-style="" opacity="1" y="-6.35" transform="rotate(0)"><tspan id="SvgjsTspan1884" dy="36" x="89"><tspan id="SvgjsTspan1885" style="text-decoration:;">DeBERTA-</tspan></tspan><tspan id="SvgjsTspan1886" dy="36" x="89"><tspan id="SvgjsTspan1887" style="text-decoration:;">large</tspan></tspan></text></g></g><g id="SvgjsG1888" transform="translate(1136,636.8019256591797)"><path id="SvgjsPath1889" d="M 0 4Q 0 0 4 0L 174 0Q 178 0 178 4L 178 68Q 178 72 174 72L 4 72Q 0 72 0 68Z" stroke="rgba(50,50,50,1)" stroke-width="2" fill-opacity="1" fill="#ffffcc"></path><g id="SvgjsG1890"><text id="SvgjsText1891" font-family="&quot;Times New Roman&quot;" text-anchor="middle" font-size="29px" width="158px" fill="#323232" font-weight="700" align="middle" anchor="middle" family="&quot;Times New Roman&quot;" size="29px" weight="700" font-style="" opacity="1" y="11.65" transform="rotate(0)"><tspan id="SvgjsTspan1892" dy="36" x="89"><tspan id="SvgjsTspan1893" style="text-decoration:;">T5-</tspan><tspan id="SvgjsTspan1894" style="text-decoration:;font-size: inherit;">3b</tspan></tspan></text></g></g><g id="SvgjsG1895" transform="translate(1725,385.8020782470703)"><path id="SvgjsPath1896" d="M 0 4Q 0 0 4 0L 228 0Q 232 0 232 4L 232 94Q 232 98 228 98L 4 98Q 0 98 0 94Z" stroke="rgba(50,50,50,1)" stroke-width="2" fill-opacity="1" fill="#ffff00"></path><g id="SvgjsG1897"><text id="SvgjsText1898" font-family="&quot;Times New Roman&quot;" text-anchor="middle" font-size="33px" width="212px" fill="#323232" font-weight="700" align="middle" anchor="middle" family="&quot;Times New Roman&quot;" size="33px" weight="700" font-style="" opacity="1" y="21.55" transform="rotate(0)"><tspan id="SvgjsTspan1899" dy="41" x="116"><tspan id="SvgjsTspan1900" style="text-decoration:;">ensemble NN</tspan></tspan></text></g></g><g id="SvgjsG1901" transform="translate(25,585.8020782470703)"><path id="SvgjsPath1902" d="M 20 12.25C 20 -4.083333333333333 40 -4.083333333333333 40 12.25C 40 28.583333333333332 20 28.583333333333332 20 12.25M 30 24.5L 30 73.5M 30 73.5L 5 98M 30 73.5L 55 98M 0 49L 60 49" stroke="rgba(50,50,50,1)" stroke-width="2" fill-opacity="1" fill="#ffffff"></path><path id="SvgjsPath1903" d="M 0 0L 60 0L 60 98L 0 98Z" stroke="none" fill="none"></path><g id="SvgjsG1904"><text id="SvgjsText1905" font-family="微软雅黑" text-anchor="middle" font-size="13px" width="100px" fill="#323232" font-weight="400" align="middle" anchor="middle" family="微软雅黑" size="13px" weight="400" font-style="" opacity="1" y="103.05" transform="rotate(0)"></text></g></g><g id="SvgjsG1906" transform="translate(1165,117.80192565917969)"><path id="SvgjsPath1907" d="M 0 0L 120 0L 120 40L 0 40Z" stroke="none" fill="none"></path><g id="SvgjsG1908"><text id="SvgjsText1909" font-family="&quot;Times New Roman&quot;" text-anchor="middle" font-size="22px" width="120px" fill="#323232" font-weight="700" align="middle" anchor="middle" family="&quot;Times New Roman&quot;" size="22px" weight="700" font-style="" opacity="1" y="0.7000000000000002" transform="rotate(0)"><tspan id="SvgjsTspan1910" dy="27" x="60"><tspan id="SvgjsTspan1911" style="text-decoration:;">CV: 0.875</tspan></tspan></text></g></g><g id="SvgjsG1912" transform="translate(1165,279.8019256591797)"><path id="SvgjsPath1913" d="M 0 0L 120 0L 120 40L 0 40Z" stroke="none" fill="none"></path><g id="SvgjsG1914"><text id="SvgjsText1915" font-family="&quot;Times New Roman&quot;" text-anchor="middle" font-size="22px" width="120px" fill="#323232" font-weight="700" align="middle" anchor="middle" family="&quot;Times New Roman&quot;" size="22px" weight="700" font-style="" opacity="1" y="0.7000000000000002" transform="rotate(0)"><tspan id="SvgjsTspan1916" dy="27" x="60"><tspan id="SvgjsTspan1917" style="text-decoration:;">CV: 0.865</tspan></tspan></text></g></g><g id="SvgjsG1918" transform="translate(1165,439.8019256591797)"><path id="SvgjsPath1919" d="M 0 0L 120 0L 120 40L 0 40Z" stroke="none" fill="none"></path><g id="SvgjsG1920"><text id="SvgjsText1921" font-family="&quot;Times New Roman&quot;" text-anchor="middle" font-size="22px" width="120px" fill="#323232" font-weight="700" align="middle" anchor="middle" family="&quot;Times New Roman&quot;" size="22px" weight="700" font-style="" opacity="1" y="0.7000000000000002" transform="rotate(0)"><tspan id="SvgjsTspan1922" dy="27" x="60"><tspan id="SvgjsTspan1923" style="text-decoration:;">CV: 0.872</tspan></tspan></text></g></g><g id="SvgjsG1924" transform="translate(1165,601.8019256591797)"><path id="SvgjsPath1925" d="M 0 0L 120 0L 120 40L 0 40Z" stroke="none" fill="none"></path><g id="SvgjsG1926"><text id="SvgjsText1927" font-family="&quot;Times New Roman&quot;" text-anchor="middle" font-size="22px" width="120px" fill="#323232" font-weight="700" align="middle" anchor="middle" family="&quot;Times New Roman&quot;" size="22px" weight="700" font-style="" opacity="1" y="0.7000000000000002" transform="rotate(0)"><tspan id="SvgjsTspan1928" dy="27" x="60"><tspan id="SvgjsTspan1929" style="text-decoration:;">CV: 0.847</tspan></tspan></text></g></g><g id="SvgjsG1930" transform="translate(1781,348.4687957763672)"><path id="SvgjsPath1931" d="M 0 0L 120 0L 120 40L 0 40Z" stroke="none" fill="none"></path><g id="SvgjsG1932"><text id="SvgjsText1933" font-family="&quot;Times New Roman&quot;" text-anchor="middle" font-size="22px" width="120px" fill="#323232" font-weight="700" align="middle" anchor="middle" family="&quot;Times New Roman&quot;" size="22px" weight="700" font-style="" opacity="1" y="0.7000000000000002" transform="rotate(0)"><tspan id="SvgjsTspan1934" dy="27" x="60"><tspan id="SvgjsTspan1935" style="text-decoration:;">CV: 0.890</tspan></tspan></text></g></g><g id="SvgjsG1936" transform="translate(73.33331298828125,419.8020782470703)"><path id="SvgjsPath1937" d="M 0 89.33332824707031C 0 -29.77777608235677 283 -29.77777608235677 283 89.33332824707031Q 277.34 175.0933233642578 141.5 178.66665649414062Q 94.33333333333333 178.66665649414062 47.166666666666664 160.79999084472658L 0 178.66665649414062L 33.111000000000004 153.1173246154785Q 0 125.06665954589843 0 89.33332824707031" stroke="rgba(50,50,50,1)" stroke-width="2" fill-opacity="1" fill="#ffffff"></path><g id="SvgjsG1938"><text id="SvgjsText1939" font-family="&quot;Times New Roman&quot;" text-anchor="middle" font-size="25px" width="263px" fill="#323232" font-weight="700" align="middle" anchor="middle" family="&quot;Times New Roman&quot;" size="25px" weight="700" font-style="" opacity="1" y="37.58332824707031" transform="rotate(0)"><tspan id="SvgjsTspan1940" dy="31" x="141.5"><tspan id="SvgjsTspan1941" style="text-decoration:;">Comcast and Time </tspan></tspan><tspan id="SvgjsTspan1942" dy="31" x="141.5"><tspan id="SvgjsTspan1943" style="text-decoration:;">Warner are the same </tspan></tspan><tspan id="SvgjsTspan1944" dy="31" x="141.5"><tspan id="SvgjsTspan1945" style="text-decoration:;">company?</tspan></tspan></text></g></g><g id="SvgjsG1946" transform="translate(25,43.80195617675781)"><path id="SvgjsPath1947" d="M 0 0L 311.33331298828125 0L 327.33331298828125 16L 327.33331298828125 334.333251953125L 0 334.333251953125L 0 0Z" stroke="none" fill-opacity="1" fill="#ffffaa"></path><path id="SvgjsPath1948" d="M 311.33331298828125 0L 311.33331298828125 16L 327.33331298828125 16Z" stroke="none" fill-opacity="1" fill="#cdcdcd"></path><path id="SvgjsPath1949" d="M 0 0L 311.33331298828125 0L 327.33331298828125 16L 327.33331298828125 334.333251953125L 0 334.333251953125L 0 0Z" stroke="none" fill="none"></path><g id="SvgjsG1950"><text id="SvgjsText1951" font-family="微软雅黑" text-anchor="middle" font-size="15px" width="308px" fill="#323232" font-weight="400" align="middle" anchor="middle" family="微软雅黑" size="15px" weight="400" font-style="" opacity="1" y="34.4166259765625" transform="rotate(0)"><tspan id="SvgjsTspan1952" dy="18" x="164"><tspan id="SvgjsTspan1953" style="text-decoration:;font-weight: bold;">Time Warner Cable attempted by </tspan></tspan><tspan id="SvgjsTspan1954" dy="18" x="164"><tspan id="SvgjsTspan1955" style="text-decoration:;font-weight: bold;">Comcast to purchase</tspan></tspan><tspan id="SvgjsTspan1956" dy="18" x="164"><tspan id="SvgjsTspan1957" style="text-decoration:;"> </tspan></tspan><tspan id="SvgjsTspan1958" dy="18" x="164"><tspan id="SvgjsTspan1959" style="text-decoration:;"> </tspan></tspan><tspan id="SvgjsTspan1960" dy="18" x="164"><tspan id="SvgjsTspan1961" style="text-decoration:;">The Justice Department led the merger as </tspan></tspan><tspan id="SvgjsTspan1962" dy="18" x="164"><tspan id="SvgjsTspan1963" style="text-decoration:;">a result of reduced competition in the </tspan></tspan><tspan id="SvgjsTspan1964" dy="18" x="164"><tspan id="SvgjsTspan1965" style="text-decoration:;">broadband and cable industries and plans </tspan></tspan><tspan id="SvgjsTspan1966" dy="18" x="164"><tspan id="SvgjsTspan1967" style="text-decoration:;">to file antitrust lawsuits against Comcast </tspan></tspan><tspan id="SvgjsTspan1968" dy="18" x="164"><tspan id="SvgjsTspan1969" style="text-decoration:;">and Time Warner Cable to halt that </tspan></tspan><tspan id="SvgjsTspan1970" dy="18" x="164"><tspan id="SvgjsTspan1971" style="text-decoration:;">competition. On April 24, 2015, Comcast </tspan></tspan><tspan id="SvgjsTspan1972" dy="18" x="164"><tspan id="SvgjsTspan1973" style="text-decoration:;">announced that it would withdraw its </tspan></tspan><tspan id="SvgjsTspan1974" dy="18" x="164"><tspan id="SvgjsTspan1975" style="text-decoration:;">proposal to acquire TWC. Thereafter, TWC </tspan></tspan><tspan id="SvgjsTspan1976" dy="18" x="164"><tspan id="SvgjsTspan1977" style="text-decoration:;">will sign an agreement to be acquired by </tspan></tspan><tspan id="SvgjsTspan1978" dy="18" x="164"><tspan id="SvgjsTspan1979" style="text-decoration:;">Charter Communications. </tspan></tspan></text></g></g><g id="SvgjsG1980" transform="translate(410.33331298828125,379.40497398376465)"><path id="SvgjsPath1981" d="M 0 0L 490 0L 490 72L 0 72Z" stroke="rgba(50,50,50,1)" stroke-width="2" fill-opacity="1" fill="#ffe6cc"></path><g id="SvgjsG1982"><text id="SvgjsText1983" font-family="&quot;Times New Roman&quot;" text-anchor="middle" font-size="25px" width="470px" fill="#323232" font-weight="700" align="middle" anchor="middle" family="&quot;Times New Roman&quot;" size="25px" weight="700" font-style="" opacity="1" y="14.75" transform="rotate(0)"><tspan id="SvgjsTspan1984" dy="31" x="245"><tspan id="SvgjsTspan1985" style="text-decoration:;">&lt;sos&gt; Question &lt;sep&gt; (Title) Passage &lt;sep&gt;</tspan></tspan></text></g></g><g id="SvgjsG1986"><path id="SvgjsPath1987" d="M1142 191.3019256591797C 1009.1700125148895 191.3019256591797 1031.496613461673 414.738317489624 900.3333129882812 415.40497398376465" stroke="#323232" stroke-width="2" fill="none"></path></g><g id="SvgjsG1988"><path id="SvgjsPath1989" d="M1136 351.3019256591797C 1039.8096704990062 351.3019256591797 998.8569554775563 414.738317489624 900.3333129882812 415.40497398376465" stroke="#323232" stroke-width="2" fill="none"></path></g><g id="SvgjsG1990"><path id="SvgjsPath1991" d="M1142 511.3019256591797C 1038.1116028332672 511.3019256591797 1004.5550231432953 414.738317489624 900.3333129882812 415.40497398376465" stroke="#323232" stroke-width="2" fill="none"></path></g><g id="SvgjsG1992"><path id="SvgjsPath1993" d="M1136 672.8019256591797C 998.3510940963199 671.3019256591797 1040.3155318802426 414.738317489624 900.3333129882812 415.40497398376465" stroke="#323232" stroke-width="2" fill="none"></path></g><g id="SvgjsG1994" transform="translate(1321,173.8020782470703)"><path id="SvgjsPath1995" d="M 0 13.200000000000001L 80 13.200000000000001L 80 0L 100 20L 80 40L 80 26.8L 0 26.8L 0 13.200000000000001Z" stroke="rgba(50,50,50,1)" stroke-width="2" fill-opacity="1" fill="#ffffff"></path><g id="SvgjsG1996"><text id="SvgjsText1997" font-family="微软雅黑" text-anchor="middle" font-size="13px" width="100px" fill="#323232" font-weight="400" align="middle" anchor="middle" family="微软雅黑" size="13px" weight="400" font-style="" opacity="1" y="10.050000000000002" transform="rotate(0)"></text></g></g><g id="SvgjsG1998" transform="translate(1314,328.1353988647461)"><path id="SvgjsPath1999" d="M 0 13.832504196166992L 84.37494277954102 13.832504196166992L 84.37494277954102 0L 105.33328247070312 20.95833969116211L 84.37494277954102 41.91667938232422L 84.37494277954102 28.08417518615723L 0 28.08417518615723L 0 13.832504196166992Z" stroke="rgba(50,50,50,1)" stroke-width="2" fill-opacity="1" fill="#ffffff"></path><g id="SvgjsG2000"><text id="SvgjsText2001" font-family="微软雅黑" text-anchor="middle" font-size="13px" width="106px" fill="#323232" font-weight="400" align="middle" anchor="middle" family="微软雅黑" size="13px" weight="400" font-style="" opacity="1" y="11.00833969116211" transform="rotate(0)"></text></g></g><g id="SvgjsG2002" transform="translate(1321,492.0521545410156)"><path id="SvgjsPath2003" d="M 0 13.200000000000001L 80 13.200000000000001L 80 0L 100 20L 80 40L 80 26.8L 0 26.8L 0 13.200000000000001Z" stroke="rgba(50,50,50,1)" stroke-width="2" fill-opacity="1" fill="#ffffff"></path><g id="SvgjsG2004"><text id="SvgjsText2005" font-family="微软雅黑" text-anchor="middle" font-size="13px" width="100px" fill="#323232" font-weight="400" align="middle" anchor="middle" family="微软雅黑" size="13px" weight="400" font-style="" opacity="1" y="10.050000000000002" transform="rotate(0)"></text></g></g><g id="SvgjsG2006" transform="translate(1318.2499694824219,658.1353988647461)"><path id="SvgjsPath2007" d="M 0 11.549896774291993L 87.16678237915039 11.549896774291993L 87.16678237915039 0L 104.6666259765625 17.49984359741211L 87.16678237915039 34.99968719482422L 87.16678237915039 23.449790420532228L 0 23.449790420532228L 0 11.549896774291993Z" stroke="rgba(50,50,50,1)" stroke-width="2" fill-opacity="1" fill="#ffffff"></path><g id="SvgjsG2008"><text id="SvgjsText2009" font-family="微软雅黑" text-anchor="middle" font-size="13px" width="105px" fill="#323232" font-weight="400" align="middle" anchor="middle" family="微软雅黑" size="13px" weight="400" font-style="" opacity="1" y="7.549843597412109" transform="rotate(0)"></text></g></g><g id="SvgjsG2010" transform="translate(1420.3333129882812,124.30192565917969)"><path id="SvgjsPath2011" d="M 18 0Q 9 0 9 9L 9 61Q 9 70 0 70Q 9 70 9 79L 9 131Q 9 140 18 140" stroke="rgba(50,50,50,1)" stroke-width="2" fill="none"></path><path id="SvgjsPath2012" d="M 98 140Q 107 140 107 131L 107 79Q 107 70 116 70Q 107 70 107 61L 107 9Q 107 0 98 0" stroke="rgba(50,50,50,1)" stroke-width="2" fill="none"></path><path id="SvgjsPath2013" d="M 0 0L 116 0L 116 140L 0 140Z" stroke="none" fill="none"></path><g id="SvgjsG2014"><text id="SvgjsText2015" font-family="微软雅黑" text-anchor="middle" font-size="13px" width="96px" fill="#323232" font-weight="400" align="middle" anchor="middle" family="微软雅黑" size="13px" weight="400" font-style="" opacity="1" y="60.05" transform="rotate(0)"></text></g></g><g id="SvgjsG2016" transform="translate(1450.9165954589844,124.30192565917969)"><path id="SvgjsPath2017" d="M 0 29.5C 0 -9.833333333333334 60 -9.833333333333334 60 29.5C 60 68.83333333333333 0 68.83333333333333 0 29.5Z" stroke="rgba(50,50,50,1)" stroke-width="2" fill-opacity="1" fill="#99ff99"></path><g id="SvgjsG2018"><text id="SvgjsText2019" font-family="微软雅黑" text-anchor="middle" font-size="13px" width="40px" fill="#323232" font-weight="400" align="middle" anchor="middle" family="微软雅黑" size="13px" weight="400" font-style="" opacity="1" y="11.55" transform="rotate(0)"><tspan id="SvgjsTspan2020" dy="16" x="30"><tspan id="SvgjsTspan2021" style="text-decoration:;">YES</tspan></tspan><tspan id="SvgjsTspan2022" dy="16" x="30"><tspan id="SvgjsTspan2023" style="text-decoration:;">Proba</tspan></tspan></text></g></g><g id="SvgjsG2024" transform="translate(1450.9165954589844,205.3019256591797)"><path id="SvgjsPath2025" d="M 0 29.5C 0 -9.833333333333334 60 -9.833333333333334 60 29.5C 60 68.83333333333333 0 68.83333333333333 0 29.5Z" stroke="rgba(50,50,50,1)" stroke-width="2" fill-opacity="1" fill="#ff9999"></path><g id="SvgjsG2026"><text id="SvgjsText2027" font-family="微软雅黑" text-anchor="middle" font-size="13px" width="40px" fill="#323232" font-weight="400" align="middle" anchor="middle" family="微软雅黑" size="13px" weight="400" font-style="" opacity="1" y="11.55" transform="rotate(0)"><tspan id="SvgjsTspan2028" dy="16" x="30"><tspan id="SvgjsTspan2029" style="text-decoration:;">No</tspan></tspan><tspan id="SvgjsTspan2030" dy="16" x="30"><tspan id="SvgjsTspan2031" style="text-decoration:;">Proba</tspan></tspan></text></g></g><g id="SvgjsG2032"><path id="SvgjsPath2033" d="M1536.3333129882812 194.3019256591797C 1658.07108871286 194.3019256591797 1604.5955372637025 432.0529251098633 1725 434.8020782470703" stroke="#323232" stroke-width="2" fill="none"></path></g><g id="SvgjsG2034" transform="translate(1420.3333129882812,279.0937385559082)"><path id="SvgjsPath2035" d="M 18 0Q 9 0 9 9L 9 61Q 9 70 0 70Q 9 70 9 79L 9 131Q 9 140 18 140" stroke="rgba(50,50,50,1)" stroke-width="2" fill="none"></path><path id="SvgjsPath2036" d="M 98 140Q 107 140 107 131L 107 79Q 107 70 116 70Q 107 70 107 61L 107 9Q 107 0 98 0" stroke="rgba(50,50,50,1)" stroke-width="2" fill="none"></path><path id="SvgjsPath2037" d="M 0 0L 116 0L 116 140L 0 140Z" stroke="none" fill="none"></path><g id="SvgjsG2038"><text id="SvgjsText2039" font-family="微软雅黑" text-anchor="middle" font-size="13px" width="96px" fill="#323232" font-weight="400" align="middle" anchor="middle" family="微软雅黑" size="13px" weight="400" font-style="" opacity="1" y="60.05" transform="rotate(0)"></text></g></g><g id="SvgjsG2040" transform="translate(1450.9165954589844,279.0937385559082)"><path id="SvgjsPath2041" d="M 0 29.5C 0 -9.833333333333334 60 -9.833333333333334 60 29.5C 60 68.83333333333333 0 68.83333333333333 0 29.5Z" stroke="rgba(50,50,50,1)" stroke-width="2" fill-opacity="1" fill="#99ff99"></path><g id="SvgjsG2042"><text id="SvgjsText2043" font-family="微软雅黑" text-anchor="middle" font-size="13px" width="40px" fill="#323232" font-weight="400" align="middle" anchor="middle" family="微软雅黑" size="13px" weight="400" font-style="" opacity="1" y="11.55" transform="rotate(0)"><tspan id="SvgjsTspan2044" dy="16" x="30"><tspan id="SvgjsTspan2045" style="text-decoration:;">YES</tspan></tspan><tspan id="SvgjsTspan2046" dy="16" x="30"><tspan id="SvgjsTspan2047" style="text-decoration:;">Proba</tspan></tspan></text></g></g><g id="SvgjsG2048" transform="translate(1450.9165954589844,355.8020782470703)"><path id="SvgjsPath2049" d="M 0 29.5C 0 -9.833333333333334 60 -9.833333333333334 60 29.5C 60 68.83333333333333 0 68.83333333333333 0 29.5Z" stroke="rgba(50,50,50,1)" stroke-width="2" fill-opacity="1" fill="#ff9999"></path><g id="SvgjsG2050"><text id="SvgjsText2051" font-family="微软雅黑" text-anchor="middle" font-size="13px" width="40px" fill="#323232" font-weight="400" align="middle" anchor="middle" family="微软雅黑" size="13px" weight="400" font-style="" opacity="1" y="11.55" transform="rotate(0)"><tspan id="SvgjsTspan2052" dy="16" x="30"><tspan id="SvgjsTspan2053" style="text-decoration:;">No</tspan></tspan><tspan id="SvgjsTspan2054" dy="16" x="30"><tspan id="SvgjsTspan2055" style="text-decoration:;">Proba</tspan></tspan></text></g></g><g id="SvgjsG2056" transform="translate(1422.9165954589844,442.0521545410156)"><path id="SvgjsPath2057" d="M 18 0Q 9 0 9 9L 9 61Q 9 70 0 70Q 9 70 9 79L 9 131Q 9 140 18 140" stroke="rgba(50,50,50,1)" stroke-width="2" fill="none"></path><path id="SvgjsPath2058" d="M 98 140Q 107 140 107 131L 107 79Q 107 70 116 70Q 107 70 107 61L 107 9Q 107 0 98 0" stroke="rgba(50,50,50,1)" stroke-width="2" fill="none"></path><path id="SvgjsPath2059" d="M 0 0L 116 0L 116 140L 0 140Z" stroke="none" fill="none"></path><g id="SvgjsG2060"><text id="SvgjsText2061" font-family="微软雅黑" text-anchor="middle" font-size="13px" width="96px" fill="#323232" font-weight="400" align="middle" anchor="middle" family="微软雅黑" size="13px" weight="400" font-style="" opacity="1" y="60.05" transform="rotate(0)"></text></g></g><g id="SvgjsG2062" transform="translate(1450.9165954589844,439.8019256591797)"><path id="SvgjsPath2063" d="M 0 29.5C 0 -9.833333333333334 60 -9.833333333333334 60 29.5C 60 68.83333333333333 0 68.83333333333333 0 29.5Z" stroke="rgba(50,50,50,1)" stroke-width="2" fill-opacity="1" fill="#99ff99"></path><g id="SvgjsG2064"><text id="SvgjsText2065" font-family="微软雅黑" text-anchor="middle" font-size="13px" width="40px" fill="#323232" font-weight="400" align="middle" anchor="middle" family="微软雅黑" size="13px" weight="400" font-style="" opacity="1" y="11.55" transform="rotate(0)"><tspan id="SvgjsTspan2066" dy="16" x="30"><tspan id="SvgjsTspan2067" style="text-decoration:;">YES</tspan></tspan><tspan id="SvgjsTspan2068" dy="16" x="30"><tspan id="SvgjsTspan2069" style="text-decoration:;">Proba</tspan></tspan></text></g></g><g id="SvgjsG2070" transform="translate(1450.9165954589844,526.8020782470703)"><path id="SvgjsPath2071" d="M 0 29.5C 0 -9.833333333333334 60 -9.833333333333334 60 29.5C 60 68.83333333333333 0 68.83333333333333 0 29.5Z" stroke="rgba(50,50,50,1)" stroke-width="2" fill-opacity="1" fill="#ff9999"></path><g id="SvgjsG2072"><text id="SvgjsText2073" font-family="微软雅黑" text-anchor="middle" font-size="13px" width="40px" fill="#323232" font-weight="400" align="middle" anchor="middle" family="微软雅黑" size="13px" weight="400" font-style="" opacity="1" y="11.55" transform="rotate(0)"><tspan id="SvgjsTspan2074" dy="16" x="30"><tspan id="SvgjsTspan2075" style="text-decoration:;">No</tspan></tspan><tspan id="SvgjsTspan2076" dy="16" x="30"><tspan id="SvgjsTspan2077" style="text-decoration:;">Proba</tspan></tspan></text></g></g><g id="SvgjsG2078" transform="translate(1422.9165954589844,605.6353607177734)"><path id="SvgjsPath2079" d="M 18 0Q 9 0 9 9L 9 61Q 9 70 0 70Q 9 70 9 79L 9 131Q 9 140 18 140" stroke="rgba(50,50,50,1)" stroke-width="2" fill="none"></path><path id="SvgjsPath2080" d="M 98 140Q 107 140 107 131L 107 79Q 107 70 116 70Q 107 70 107 61L 107 9Q 107 0 98 0" stroke="rgba(50,50,50,1)" stroke-width="2" fill="none"></path><path id="SvgjsPath2081" d="M 0 0L 116 0L 116 140L 0 140Z" stroke="none" fill="none"></path><g id="SvgjsG2082"><text id="SvgjsText2083" font-family="微软雅黑" text-anchor="middle" font-size="13px" width="96px" fill="#323232" font-weight="400" align="middle" anchor="middle" family="微软雅黑" size="13px" weight="400" font-style="" opacity="1" y="60.05" transform="rotate(0)"></text></g></g><g id="SvgjsG2084" transform="translate(1450.9165954589844,605.6353607177734)"><path id="SvgjsPath2085" d="M 0 29.5C 0 -9.833333333333334 60 -9.833333333333334 60 29.5C 60 68.83333333333333 0 68.83333333333333 0 29.5Z" stroke="rgba(50,50,50,1)" stroke-width="2" fill-opacity="1" fill="#99ff99"></path><g id="SvgjsG2086"><text id="SvgjsText2087" font-family="微软雅黑" text-anchor="middle" font-size="13px" width="40px" fill="#323232" font-weight="400" align="middle" anchor="middle" family="微软雅黑" size="13px" weight="400" font-style="" opacity="1" y="11.55" transform="rotate(0)"><tspan id="SvgjsTspan2088" dy="16" x="30"><tspan id="SvgjsTspan2089" style="text-decoration:;">YES</tspan></tspan><tspan id="SvgjsTspan2090" dy="16" x="30"><tspan id="SvgjsTspan2091" style="text-decoration:;">Proba</tspan></tspan></text></g></g><g id="SvgjsG2092" transform="translate(1450.9165954589844,686.6353607177734)"><path id="SvgjsPath2093" d="M 0 29.5C 0 -9.833333333333334 60 -9.833333333333334 60 29.5C 60 68.83333333333333 0 68.83333333333333 0 29.5Z" stroke="rgba(50,50,50,1)" stroke-width="2" fill-opacity="1" fill="#ff9999"></path><g id="SvgjsG2094"><text id="SvgjsText2095" font-family="微软雅黑" text-anchor="middle" font-size="13px" width="40px" fill="#323232" font-weight="400" align="middle" anchor="middle" family="微软雅黑" size="13px" weight="400" font-style="" opacity="1" y="11.55" transform="rotate(0)"><tspan id="SvgjsTspan2096" dy="16" x="30"><tspan id="SvgjsTspan2097" style="text-decoration:;">No</tspan></tspan><tspan id="SvgjsTspan2098" dy="16" x="30"><tspan id="SvgjsTspan2099" style="text-decoration:;">Proba</tspan></tspan></text></g></g><g id="SvgjsG2100"><path id="SvgjsPath2101" d="M1536.3333129882812 349.0937385559082C 1619.222191161984 349.0937385559082 1642.1111218262972 434.8020782470703 1725 434.8020782470703" stroke="#323232" stroke-width="2" fill="none"></path></g><g id="SvgjsG2102"><path id="SvgjsPath2103" d="M1538.9165954589844 512.0521545410156C 1619.5090097253365 512.0521545410156 1644.407585733648 434.8020782470703 1725 434.8020782470703" stroke="#323232" stroke-width="2" fill="none"></path></g><g id="SvgjsG2104"><path id="SvgjsPath2105" d="M1538.9165954589844 675.6353607177734C 1660.6557943334233 675.6353607177734 1603.260801125561 434.8020782470703 1725 434.8020782470703" stroke="#323232" stroke-width="2" fill="none"></path></g><g id="SvgjsG2106" transform="translate(2060.702312988281,364.8020782470703)"><path id="SvgjsPath2107" d="M 18 0Q 9 0 9 9L 9 61Q 9 70 0 70Q 9 70 9 79L 9 131Q 9 140 18 140" stroke="rgba(50,50,50,1)" stroke-width="2" fill="none"></path><path id="SvgjsPath2108" d="M 98 140Q 107 140 107 131L 107 79Q 107 70 116 70Q 107 70 107 61L 107 9Q 107 0 98 0" stroke="rgba(50,50,50,1)" stroke-width="2" fill="none"></path><path id="SvgjsPath2109" d="M 0 0L 116 0L 116 140L 0 140Z" stroke="none" fill="none"></path><g id="SvgjsG2110"><text id="SvgjsText2111" font-family="微软雅黑" text-anchor="middle" font-size="13px" width="96px" fill="#323232" font-weight="400" align="middle" anchor="middle" family="微软雅黑" size="13px" weight="400" font-style="" opacity="1" y="60.05" transform="rotate(0)"></text></g></g><g id="SvgjsG2112" transform="translate(2092.702312988281,361.1771812438965)"><path id="SvgjsPath2113" d="M 0 29.5C 0 -9.833333333333334 59 -9.833333333333334 59 29.5C 59 68.83333333333333 0 68.83333333333333 0 29.5Z" stroke="rgba(50,50,50,1)" stroke-width="2" fill-opacity="1" fill="#99ff99"></path><g id="SvgjsG2114"><text id="SvgjsText2115" font-family="微软雅黑" text-anchor="middle" font-size="13px" width="39px" fill="#323232" font-weight="400" align="middle" anchor="middle" family="微软雅黑" size="13px" weight="400" font-style="" opacity="1" y="11.55" transform="rotate(0)"><tspan id="SvgjsTspan2116" dy="16" x="29.5"><tspan id="SvgjsTspan2117" style="text-decoration:;">YES</tspan></tspan><tspan id="SvgjsTspan2118" dy="16" x="29.5"><tspan id="SvgjsTspan2119" style="text-decoration:;">Proba</tspan></tspan></text></g></g><g id="SvgjsG2120" transform="translate(2092.702312988281,445.8020782470703)"><path id="SvgjsPath2121" d="M 0 29.5C 0 -9.833333333333334 59 -9.833333333333334 59 29.5C 59 68.83333333333333 0 68.83333333333333 0 29.5Z" stroke="rgba(50,50,50,1)" stroke-width="2" fill-opacity="1" fill="#ff9999"></path><g id="SvgjsG2122"><text id="SvgjsText2123" font-family="微软雅黑" text-anchor="middle" font-size="13px" width="39px" fill="#323232" font-weight="400" align="middle" anchor="middle" family="微软雅黑" size="13px" weight="400" font-style="" opacity="1" y="11.55" transform="rotate(0)"><tspan id="SvgjsTspan2124" dy="16" x="29.5"><tspan id="SvgjsTspan2125" style="text-decoration:;">No</tspan></tspan><tspan id="SvgjsTspan2126" dy="16" x="29.5"><tspan id="SvgjsTspan2127" style="text-decoration:;">Proba</tspan></tspan></text></g></g><g id="SvgjsG2128" transform="translate(1958.3333129882812,414.8020782470703)"><path id="SvgjsPath2129" d="M 0 13.200000000000001L 80 13.200000000000001L 80 0L 100 20L 80 40L 80 26.8L 0 26.8L 0 13.200000000000001Z" stroke="rgba(50,50,50,1)" stroke-width="2" fill-opacity="1" fill="#ffffff"></path><g id="SvgjsG2130"><text id="SvgjsText2131" font-family="微软雅黑" text-anchor="middle" font-size="13px" width="100px" fill="#323232" font-weight="400" align="middle" anchor="middle" family="微软雅黑" size="13px" weight="400" font-style="" opacity="1" y="10.050000000000002" transform="rotate(0)"></text></g></g><g id="SvgjsG2132" transform="translate(2176.702312988281,319.8019256591797)"><path id="SvgjsPath2133" d="M 0 56.81252479553223C 0 -18.93750826517741 195.6310190734862 -18.93750826517741 195.6310190734862 56.81252479553223Q 191.71839869201645 111.35254859924316 97.8155095367431 113.62504959106445Q 65.21033969116206 113.62504959106445 32.60516984558103 102.26254463195801L 0 113.62504959106445L 22.888829231597885 97.37666749954224Q 0 79.53753471374512 0 56.81252479553223" stroke="rgba(50,50,50,1)" stroke-width="2" fill-opacity="1" fill="#cce5ff"></path><g id="SvgjsG2134"><text id="SvgjsText2135" font-family="&quot;Times New Roman&quot;" text-anchor="middle" font-size="49px" width="176px" fill="#323232" font-weight="400" align="middle" anchor="middle" family="&quot;Times New Roman&quot;" size="49px" weight="400" font-style="" opacity="1" y="16.962524795532225" transform="rotate(0)"><tspan id="SvgjsTspan2136" dy="61" x="98"><tspan id="SvgjsTspan2137" style="text-decoration:;">No!</tspan></tspan></text></g></g><g id="SvgjsG2138"><path id="SvgjsPath2139" d="M352.33331298828125 210.9685821533203C 437.0786775001197 210.9685821533203 325.5879484764428 414.738317489624 410.33331298828125 415.40497398376465" stroke="#323232" stroke-width="2" fill="none"></path></g><g id="SvgjsG2140"><path id="SvgjsPath2141" d="M356.33331298828125 509.1354064941406C 397.4752135780265 511.39082542702727 368.5567322658961 414.738317489624 410.33331298828125 415.40497398376465" stroke="#323232" stroke-width="2" fill="none"></path></g></svg>